<svg width="19" height="23" viewBox="0 0 19 23" fill="none" xmlns="http://www.w3.org/2000/svg">
<path d="M18.4911 7.69439H0.508929C0.227873 7.69439 0 7.46803 0 7.18883V5.67216C0 4.55529 0.911406 3.64992 2.03571 3.64992H4.07143V1.45917C4.07143 1.17998 4.2993 0.953613 4.58036 0.953613H6.27679C6.55784 0.953613 6.78571 1.17998 6.78571 1.45917V3.64992H12.2143V1.45917C12.2143 1.17998 12.4422 0.953613 12.7232 0.953613H14.4196C14.7007 0.953613 14.9286 1.17998 14.9286 1.45917V3.64992H16.9643C18.0886 3.64992 19 4.55529 19 5.67216V7.18883C19 7.46803 18.7721 7.69439 18.4911 7.69439ZM0.508929 9.04254H18.4911C18.7721 9.04254 19 9.26891 19 9.5481V20.5019C19 21.6187 18.0886 22.5241 16.9643 22.5241H2.03571C0.911406 22.5241 0 21.6187 0 20.5019V9.5481C0 9.26891 0.227873 9.04254 0.508929 9.04254ZM14.6442 13.0848L13.4496 11.8884C13.2517 11.6902 12.9294 11.6888 12.7299 11.8855L8.23277 16.3169L6.28272 14.3641C6.08479 14.1659 5.76251 14.1646 5.56297 14.3612L4.35863 15.548C4.15909 15.7446 4.15778 16.0647 4.35575 16.263L7.85892 19.7711C8.05685 19.9693 8.37908 19.9706 8.57863 19.7739L14.6414 13.7997C14.8409 13.6031 14.8422 13.283 14.6442 13.0848Z" fill="#2136D4"/>
</svg>
