<svg width="37" height="37" viewBox="0 0 37 37" fill="none" xmlns="http://www.w3.org/2000/svg">
<path d="M36.294 10.3587C36.2759 10.1003 36.1617 9.85477 35.9697 9.66149C35.7776 9.46822 35.5188 9.33837 35.2348 9.29275C28.3053 8.17837 25.3894 7.30681 19.1317 4.78029C18.5067 4.57143 18.1192 4.57505 17.5208 4.78029C11.263 7.3097 8.3472 8.17692 1.4177 9.29275C1.13362 9.33837 0.874819 9.46822 0.68277 9.66149C0.49072 9.85477 0.376532 10.1003 0.358499 10.3587C0.0483908 14.7743 0.708075 18.8864 2.32064 22.583C3.63921 25.5973 5.59264 28.3554 8.07414 30.7067C11.6722 34.1344 15.6617 36.1355 17.7189 36.8929C18.109 37.0357 18.5459 37.0357 18.936 36.8929C21.1108 36.1037 24.9521 34.1597 28.5783 30.7053C31.0596 28.3544 33.0131 25.5968 34.3318 22.583C35.9444 18.8872 36.6041 14.7743 36.294 10.3587Z" fill="#0048CD"/>
<path d="M18.5739 29.4217C16.6573 29.4217 15.0217 29.0511 13.6673 28.31C12.3128 27.5689 11.2778 26.5467 10.5623 25.2433C9.84671 23.9144 9.48894 22.4194 9.48894 20.7583C9.48894 19.1228 9.89783 17.6533 10.7156 16.35C11.5334 15.0467 12.6323 14.0117 14.0123 13.245C15.4178 12.4528 16.9639 12.0567 18.6506 12.0567C20.8739 12.0567 22.7012 12.7083 24.1323 14.0117C25.5889 15.2894 26.56 17.1039 27.0456 19.455L13.9739 23.8633L12.9773 21.4483L23.1739 17.8067L22.2923 18.305C22.0112 17.5383 21.5512 16.8739 20.9123 16.3117C20.2989 15.7494 19.43 15.4683 18.3056 15.4683C17.4112 15.4683 16.6189 15.6856 15.9289 16.12C15.2389 16.5289 14.6895 17.1167 14.2806 17.8833C13.8973 18.6244 13.7056 19.5061 13.7056 20.5283C13.7056 21.5761 13.9228 22.4961 14.3573 23.2883C14.7917 24.0806 15.3795 24.6939 16.1206 25.1283C16.8617 25.5372 17.705 25.7417 18.6506 25.7417C19.315 25.7417 19.9539 25.6267 20.5673 25.3967C21.1806 25.1667 21.7556 24.86 22.2923 24.4767L24.2473 27.6583C23.4039 28.195 22.4712 28.6294 21.4489 28.9617C20.4523 29.2683 19.4939 29.4217 18.5739 29.4217Z" fill="#FFFEFE"/>
</svg>
