<svg width="31" height="30" viewBox="0 0 31 30" fill="none" xmlns="http://www.w3.org/2000/svg">
<g filter="url(#filter0_d_1_27)">
<path d="M15.4946 7.05571H25.841C26.5099 7.05178 27.1499 6.82484 27.6217 6.42429C28.0934 6.02373 28.3588 5.48199 28.36 4.91696C28.36 1.55538 23.6031 -0.156214 20.756 2.17127L15.4934 6.48153L15.4946 7.05571Z" fill="#DE2236"/>
<path d="M15.4946 7.05571H25.841C26.5099 7.05178 27.1499 6.82484 27.6217 6.42429C28.0934 6.02373 28.3588 5.48199 28.36 4.91696C28.36 1.55538 23.6031 -0.156214 20.756 2.17127L15.4934 6.48153L15.4946 7.05571Z" fill="url(#paint0_linear_1_27)"/>
</g>
<g filter="url(#filter1_d_1_27)">
<path d="M15.4945 7.05571H5.14573C4.47726 7.05126 3.83789 6.82409 3.36662 6.42359C2.89536 6.02309 2.63031 5.48165 2.62909 4.91696C2.62909 1.55538 7.38601 -0.156214 10.2331 2.17127L15.4945 6.48153V7.05571Z" fill="url(#paint1_linear_1_27)"/>
<path d="M15.4945 7.05571H5.14573C4.47726 7.05126 3.83789 6.82409 3.36662 6.42359C2.89536 6.02309 2.63031 5.48165 2.62909 4.91696C2.62909 1.55538 7.38601 -0.156214 10.2331 2.17127L15.4945 6.48153V7.05571Z" fill="url(#paint2_linear_1_27)"/>
<path d="M15.4945 7.05571H5.14573C4.47726 7.05126 3.83789 6.82409 3.36662 6.42359C2.89536 6.02309 2.63031 5.48165 2.62909 4.91696C2.62909 1.55538 7.38601 -0.156214 10.2331 2.17127L15.4945 6.48153V7.05571Z" fill="url(#paint3_radial_1_27)"/>
</g>
<path d="M25.8763 28.91H4.97169C4.64717 28.9125 4.32528 28.8608 4.02453 28.7578C3.72378 28.6548 3.45011 28.5026 3.21928 28.3099C2.98844 28.1172 2.80499 27.8879 2.67948 27.6351C2.55398 27.3823 2.48889 27.111 2.48798 26.8369V14.0104H28.36V26.8389C28.36 27.9773 27.2545 28.91 25.8763 28.91Z" fill="url(#paint4_linear_1_27)"/>
<path d="M25.8763 28.91H4.97169C4.64717 28.9125 4.32528 28.8608 4.02453 28.7578C3.72378 28.6548 3.45011 28.5026 3.21928 28.3099C2.98844 28.1172 2.80499 27.8879 2.67948 27.6351C2.55398 27.3823 2.48889 27.111 2.48798 26.8369V14.0104H28.36V26.8389C28.36 27.9773 27.2545 28.91 25.8763 28.91Z" fill="url(#paint5_linear_1_27)"/>
<path d="M25.8763 28.91H4.97169C4.64717 28.9125 4.32528 28.8608 4.02453 28.7578C3.72378 28.6548 3.45011 28.5026 3.21928 28.3099C2.98844 28.1172 2.80499 27.8879 2.67948 27.6351C2.55398 27.3823 2.48889 27.111 2.48798 26.8369V14.0104H28.36V26.8389C28.36 27.9773 27.2545 28.91 25.8763 28.91Z" fill="url(#paint6_radial_1_27)"/>
<path d="M25.8763 28.91H4.97169C4.64717 28.9125 4.32528 28.8608 4.02453 28.7578C3.72378 28.6548 3.45011 28.5026 3.21928 28.3099C2.98844 28.1172 2.80499 27.8879 2.67948 27.6351C2.55398 27.3823 2.48889 27.111 2.48798 26.8369V14.0104H28.36V26.8389C28.36 27.9773 27.2545 28.91 25.8763 28.91Z" fill="url(#paint7_linear_1_27)"/>
<path d="M25.8763 28.91H4.97169C4.64717 28.9125 4.32528 28.8608 4.02453 28.7578C3.72378 28.6548 3.45011 28.5026 3.21928 28.3099C2.98844 28.1172 2.80499 27.8879 2.67948 27.6351C2.55398 27.3823 2.48889 27.111 2.48798 26.8369V14.0104H28.36V26.8389C28.36 27.9773 27.2545 28.91 25.8763 28.91Z" fill="url(#paint8_linear_1_27)"/>
<path d="M25.8763 28.91H4.97169C4.64717 28.9125 4.32528 28.8608 4.02453 28.7578C3.72378 28.6548 3.45011 28.5026 3.21928 28.3099C2.98844 28.1172 2.80499 27.8879 2.67948 27.6351C2.55398 27.3823 2.48889 27.111 2.48798 26.8369V14.0104H28.36V26.8389C28.36 27.9773 27.2545 28.91 25.8763 28.91Z" fill="url(#paint9_linear_1_27)"/>
<path d="M29.1385 7.05576H1.7083C0.841586 7.05576 0.135986 7.65178 0.135986 8.38887V12.6763C0.135986 13.4124 0.841586 14.0094 1.70947 14.0094H29.1385C30.0064 14.0094 30.712 13.4114 30.712 12.6763V8.38887C30.712 7.65278 30.0064 7.05576 29.1385 7.05576Z" fill="url(#paint10_linear_1_27)"/>
<path d="M29.1385 7.05576H1.7083C0.841586 7.05576 0.135986 7.65178 0.135986 8.38887V12.6763C0.135986 13.4124 0.841586 14.0094 1.70947 14.0094H29.1385C30.0064 14.0094 30.712 13.4114 30.712 12.6763V8.38887C30.712 7.65278 30.0064 7.05576 29.1385 7.05576Z" fill="url(#paint11_linear_1_27)"/>
<path d="M29.1385 7.05576H1.7083C0.841586 7.05576 0.135986 7.65178 0.135986 8.38887V12.6763C0.135986 13.4124 0.841586 14.0094 1.70947 14.0094H29.1385C30.0064 14.0094 30.712 13.4114 30.712 12.6763V8.38887C30.712 7.65278 30.0064 7.05576 29.1385 7.05576Z" fill="url(#paint12_linear_1_27)"/>
<path d="M29.1385 7.05576H1.7083C0.841586 7.05576 0.135986 7.65178 0.135986 8.38887V12.6763C0.135986 13.4124 0.841586 14.0094 1.70947 14.0094H29.1385C30.0064 14.0094 30.712 13.4114 30.712 12.6763V8.38887C30.712 7.65278 30.0064 7.05576 29.1385 7.05576Z" fill="url(#paint13_radial_1_27)"/>
<path d="M29.1385 7.05576H1.7083C0.841586 7.05576 0.135986 7.65178 0.135986 8.38887V12.6763C0.135986 13.4124 0.841586 14.0094 1.70947 14.0094H29.1385C30.0064 14.0094 30.712 13.4114 30.712 12.6763V8.38887C30.712 7.65278 30.0064 7.05576 29.1385 7.05576Z" fill="url(#paint14_linear_1_27)"/>
<path d="M29.1385 7.05576H1.7083C0.841586 7.05576 0.135986 7.65178 0.135986 8.38887V12.6763C0.135986 13.4124 0.841586 14.0094 1.70947 14.0094H29.1385C30.0064 14.0094 30.712 13.4114 30.712 12.6763V8.38887C30.712 7.65278 30.0064 7.05576 29.1385 7.05576Z" fill="url(#paint15_radial_1_27)"/>
<g filter="url(#filter2_dd_1_27)">
<path d="M15.4299 2.08887C13.4777 2.08887 11.896 3.44781 11.896 5.1286V28.9101H18.952V5.1286C18.9638 3.4488 17.3832 2.08887 15.4299 2.08887Z" fill="url(#paint16_linear_1_27)"/>
<path d="M15.4299 2.08887C13.4777 2.08887 11.896 3.44781 11.896 5.1286V28.9101H18.952V5.1286C18.9638 3.4488 17.3832 2.08887 15.4299 2.08887Z" fill="url(#paint17_linear_1_27)"/>
</g>
<g filter="url(#filter3_f_1_27)">
<path d="M24.8461 2.08887C25.7646 2.29549 27.5509 3.20046 27.3451 5.16238" stroke="#FB5157" stroke-width="0.5" stroke-linecap="round"/>
</g>
<g filter="url(#filter4_f_1_27)">
<path d="M7.97754 1.91988C8.15982 1.90696 8.69725 2.01127 9.38874 2.53478C10.0802 3.05729 11.0728 3.93146 11.482 4.30299" stroke="#FB5157" stroke-width="0.5" stroke-linecap="round"/>
</g>
<defs>
<filter id="filter0_d_1_27" x="15.0434" y="0.649365" width="14.3666" height="7.45633" filterUnits="userSpaceOnUse" color-interpolation-filters="sRGB">
<feFlood flood-opacity="0" result="BackgroundImageFix"/>
<feColorMatrix in="SourceAlpha" type="matrix" values="0 0 0 0 0 0 0 0 0 0 0 0 0 0 0 0 0 0 127 0" result="hardAlpha"/>
<feOffset dx="0.3" dy="0.3"/>
<feGaussianBlur stdDeviation="0.375"/>
<feComposite in2="hardAlpha" operator="out"/>
<feColorMatrix type="matrix" values="0 0 0 0 0.698039 0 0 0 0 0.235294 0 0 0 0 0.243137 0 0 0 1 0"/>
<feBlend mode="normal" in2="BackgroundImageFix" result="effect1_dropShadow_1_27"/>
<feBlend mode="normal" in="SourceGraphic" in2="effect1_dropShadow_1_27" result="shape"/>
</filter>
<filter id="filter1_d_1_27" x="2.37909" y="0.0493652" width="14.3654" height="7.45633" filterUnits="userSpaceOnUse" color-interpolation-filters="sRGB">
<feFlood flood-opacity="0" result="BackgroundImageFix"/>
<feColorMatrix in="SourceAlpha" type="matrix" values="0 0 0 0 0 0 0 0 0 0 0 0 0 0 0 0 0 0 127 0" result="hardAlpha"/>
<feOffset dx="0.5" dy="-0.3"/>
<feGaussianBlur stdDeviation="0.375"/>
<feComposite in2="hardAlpha" operator="out"/>
<feColorMatrix type="matrix" values="0 0 0 0 0.698039 0 0 0 0 0.235294 0 0 0 0 0.243137 0 0 0 1 0"/>
<feBlend mode="normal" in2="BackgroundImageFix" result="effect1_dropShadow_1_27"/>
<feBlend mode="normal" in="SourceGraphic" in2="effect1_dropShadow_1_27" result="shape"/>
</filter>
<filter id="filter2_dd_1_27" x="11.496" y="1.88887" width="7.85609" height="27.2212" filterUnits="userSpaceOnUse" color-interpolation-filters="sRGB">
<feFlood flood-opacity="0" result="BackgroundImageFix"/>
<feColorMatrix in="SourceAlpha" type="matrix" values="0 0 0 0 0 0 0 0 0 0 0 0 0 0 0 0 0 0 127 0" result="hardAlpha"/>
<feOffset dx="0.2"/>
<feGaussianBlur stdDeviation="0.1"/>
<feComposite in2="hardAlpha" operator="out"/>
<feColorMatrix type="matrix" values="0 0 0 0 0.729412 0 0 0 0 0.101961 0 0 0 0 0.152941 0 0 0 1 0"/>
<feBlend mode="normal" in2="BackgroundImageFix" result="effect1_dropShadow_1_27"/>
<feColorMatrix in="SourceAlpha" type="matrix" values="0 0 0 0 0 0 0 0 0 0 0 0 0 0 0 0 0 0 127 0" result="hardAlpha"/>
<feOffset dx="-0.2"/>
<feGaussianBlur stdDeviation="0.1"/>
<feComposite in2="hardAlpha" operator="out"/>
<feColorMatrix type="matrix" values="0 0 0 0 0.894118 0 0 0 0 0.301961 0 0 0 0 0.341176 0 0 0 1 0"/>
<feBlend mode="normal" in2="effect1_dropShadow_1_27" result="effect2_dropShadow_1_27"/>
<feBlend mode="normal" in="SourceGraphic" in2="effect2_dropShadow_1_27" result="shape"/>
</filter>
<filter id="filter3_f_1_27" x="23.5961" y="0.838806" width="5.01544" height="5.57358" filterUnits="userSpaceOnUse" color-interpolation-filters="sRGB">
<feFlood flood-opacity="0" result="BackgroundImageFix"/>
<feBlend mode="normal" in="SourceGraphic" in2="BackgroundImageFix" result="shape"/>
<feGaussianBlur stdDeviation="0.5" result="effect1_foregroundBlur_1_27"/>
</filter>
<filter id="filter4_f_1_27" x="6.72754" y="0.668884" width="6.00446" height="4.88409" filterUnits="userSpaceOnUse" color-interpolation-filters="sRGB">
<feFlood flood-opacity="0" result="BackgroundImageFix"/>
<feBlend mode="normal" in="SourceGraphic" in2="BackgroundImageFix" result="shape"/>
<feGaussianBlur stdDeviation="0.5" result="effect1_foregroundBlur_1_27"/>
</filter>
<linearGradient id="paint0_linear_1_27" x1="23.315" y1="7.53253" x2="23.315" y2="5.68683" gradientUnits="userSpaceOnUse">
<stop stop-color="#CE280A"/>
<stop offset="1" stop-color="#CE280A" stop-opacity="0"/>
</linearGradient>
<linearGradient id="paint1_linear_1_27" x1="11.1175" y1="2.38087" x2="9.59698" y2="7.22409" gradientUnits="userSpaceOnUse">
<stop stop-color="#DF2332"/>
<stop offset="1" stop-color="#D9213B"/>
</linearGradient>
<linearGradient id="paint2_linear_1_27" x1="7.67295" y1="7.53253" x2="7.67295" y2="5.68683" gradientUnits="userSpaceOnUse">
<stop stop-color="#CE280A"/>
<stop offset="1" stop-color="#CE280A" stop-opacity="0"/>
</linearGradient>
<radialGradient id="paint3_radial_1_27" cx="0" cy="0" r="1" gradientUnits="userSpaceOnUse" gradientTransform="translate(12.5287 7.33981) rotate(-174.59) scale(3.01716 6.72727)">
<stop offset="0.151" stop-color="#BD1123"/>
<stop offset="1" stop-color="#BD1123" stop-opacity="0"/>
</radialGradient>
<linearGradient id="paint4_linear_1_27" x1="2.48798" y1="23.5081" x2="28.36" y2="23.5081" gradientUnits="userSpaceOnUse">
<stop stop-color="#F1A738"/>
<stop offset="1" stop-color="#FAD42C"/>
</linearGradient>
<linearGradient id="paint5_linear_1_27" x1="15.424" y1="12.0226" x2="15.424" y2="15.2511" gradientUnits="userSpaceOnUse">
<stop stop-color="#C97525"/>
<stop offset="1" stop-color="#C97525" stop-opacity="0"/>
</linearGradient>
<radialGradient id="paint6_radial_1_27" cx="0" cy="0" r="1" gradientUnits="userSpaceOnUse" gradientTransform="translate(12.6451 20.2796) rotate(180) scale(2.793 18.5637)">
<stop stop-color="#C87C28"/>
<stop offset="1" stop-color="#C87C28" stop-opacity="0"/>
</radialGradient>
<linearGradient id="paint7_linear_1_27" x1="1.84" y1="21.4597" x2="5.662" y2="21.4597" gradientUnits="userSpaceOnUse">
<stop stop-color="#C2773F"/>
<stop offset="1" stop-color="#C2773F" stop-opacity="0"/>
</linearGradient>
<linearGradient id="paint8_linear_1_27" x1="16.0273" y1="29.524" x2="16.0273" y2="27.8342" gradientUnits="userSpaceOnUse">
<stop stop-color="#E68370"/>
<stop offset="1" stop-color="#E68370" stop-opacity="0"/>
</linearGradient>
<linearGradient id="paint9_linear_1_27" x1="29.182" y1="22.763" x2="26.0221" y2="22.763" gradientUnits="userSpaceOnUse">
<stop stop-color="#FFF733"/>
<stop offset="1" stop-color="#FFF733" stop-opacity="0"/>
</linearGradient>
<linearGradient id="paint10_linear_1_27" x1="30.712" y1="11.0164" x2="0.136067" y2="10.9231" gradientUnits="userSpaceOnUse">
<stop stop-color="#F6D729"/>
<stop offset="1" stop-color="#F39B3A"/>
</linearGradient>
<linearGradient id="paint11_linear_1_27" x1="30.712" y1="10.5326" x2="28.681" y2="10.5326" gradientUnits="userSpaceOnUse">
<stop stop-color="#FFF850"/>
<stop offset="1" stop-color="#FFF850" stop-opacity="0"/>
</linearGradient>
<linearGradient id="paint12_linear_1_27" x1="15.424" y1="14.3263" x2="15.424" y2="13.1581" gradientUnits="userSpaceOnUse">
<stop stop-color="#E8AF21"/>
<stop offset="1" stop-color="#E8AF21" stop-opacity="0"/>
</linearGradient>
<radialGradient id="paint13_radial_1_27" cx="0" cy="0" r="1" gradientUnits="userSpaceOnUse" gradientTransform="translate(3.84391 14.7286) rotate(-90) scale(1.81204 15.4114)">
<stop stop-color="#DE7550"/>
<stop offset="1" stop-color="#DE7550" stop-opacity="0"/>
</radialGradient>
<linearGradient id="paint14_linear_1_27" x1="-0.19447" y1="10.9528" x2="2.52444" y2="10.9528" gradientUnits="userSpaceOnUse">
<stop stop-color="#BE7841"/>
<stop offset="1" stop-color="#BE7841" stop-opacity="0"/>
</linearGradient>
<radialGradient id="paint15_radial_1_27" cx="0" cy="0" r="1" gradientUnits="userSpaceOnUse" gradientTransform="translate(13.0132 11.5567) rotate(180) scale(2.97675 17.4151)">
<stop offset="0.189" stop-color="#C57E10"/>
<stop offset="1" stop-color="#C57E10" stop-opacity="0"/>
</radialGradient>
<linearGradient id="paint16_linear_1_27" x1="15.4334" y1="2.09085" x2="15.4334" y2="28.9091" gradientUnits="userSpaceOnUse">
<stop stop-color="#D12136"/>
<stop offset="1" stop-color="#B6246E"/>
</linearGradient>
<linearGradient id="paint17_linear_1_27" x1="15.424" y1="29.1634" x2="15.424" y2="27.7289" gradientUnits="userSpaceOnUse">
<stop stop-color="#B3368C"/>
<stop offset="1" stop-color="#B3368C" stop-opacity="0"/>
</linearGradient>
</defs>
</svg>
