<svg width="19" height="28" viewBox="0 0 19 28" fill="none" xmlns="http://www.w3.org/2000/svg">
<path d="M9.5 13.1385C8.60016 13.1385 7.73717 12.7834 7.10089 12.1514C6.4646 11.5193 6.10714 10.662 6.10714 9.76814C6.10714 8.87426 6.4646 8.01699 7.10089 7.38492C7.73717 6.75285 8.60016 6.39775 9.5 6.39775C10.3998 6.39775 11.2628 6.75285 11.8991 7.38492C12.5354 8.01699 12.8929 8.87426 12.8929 9.76814C12.8929 10.2107 12.8051 10.649 12.6346 11.0579C12.4641 11.4668 12.2142 11.8384 11.8991 12.1514C11.5841 12.4643 11.21 12.7126 10.7984 12.882C10.3868 13.0514 9.94556 13.1385 9.5 13.1385ZM9.5 0.331055C6.98044 0.331055 4.56408 1.32532 2.78249 3.09511C1.00089 4.86491 0 7.26527 0 9.76814C0 16.846 9.5 27.2942 9.5 27.2942C9.5 27.2942 19 16.846 19 9.76814C19 7.26527 17.9991 4.86491 16.2175 3.09511C14.4359 1.32532 12.0196 0.331055 9.5 0.331055Z" fill="#2136D4"/>
</svg>
