<svg width="35" height="35" viewBox="0 0 35 35" fill="none" xmlns="http://www.w3.org/2000/svg">
<path d="M17.3906 34.125C10.6066 34.125 3.28125 29.8703 3.28125 20.5324C3.28125 11.1945 10.6066 6.93985 17.3906 6.93985C21.1586 6.93985 24.6367 8.17852 27.2152 10.4398C30.0098 12.9227 31.4945 16.4227 31.4945 20.5324C31.4945 24.6422 30.0098 28.1203 27.2152 30.6004C24.6367 32.8617 21.134 34.125 17.3906 34.125Z" fill="url(#paint0_radial_1_155)"/>
<path d="M29.0363 12.4523C30.3707 14.6672 31.0543 17.2156 31.0078 19.8023C31.0078 23.9039 29.523 27.3902 26.7285 29.8703C24.15 32.1316 20.65 33.3949 16.9039 33.3949C12.5125 33.3949 7.89958 31.6094 5.18982 27.8168C7.80661 32.1125 12.7258 34.125 17.3906 34.125C21.134 34.125 24.6367 32.8617 27.2152 30.6004C30.0097 28.1176 31.4945 24.6422 31.4945 20.5324C31.4945 17.4344 30.6496 14.6809 29.0363 12.4523Z" fill="#EB8F00"/>
<path opacity="0.8" d="M9.24219 24.0898C11.885 24.0898 14.0273 22.0699 14.0273 19.5781C14.0273 17.0864 11.885 15.0664 9.24219 15.0664C6.59942 15.0664 4.45703 17.0864 4.45703 19.5781C4.45703 22.0699 6.59942 24.0898 9.24219 24.0898Z" fill="url(#paint1_radial_1_155)"/>
<path opacity="0.8" d="M25.7578 24.0898C28.4006 24.0898 30.543 22.0699 30.543 19.5781C30.543 17.0864 28.4006 15.0664 25.7578 15.0664C23.115 15.0664 20.9727 17.0864 20.9727 19.5781C20.9727 22.0699 23.115 24.0898 25.7578 24.0898Z" fill="url(#paint2_radial_1_155)"/>
<path d="M6.5625 5.46875C7.61961 5.46875 8.47656 4.85664 8.47656 4.10156C8.47656 3.34649 7.61961 2.73438 6.5625 2.73438C5.50539 2.73438 4.64844 3.34649 4.64844 4.10156C4.64844 4.85664 5.50539 5.46875 6.5625 5.46875Z" fill="#FF00A2"/>
<path d="M14.6144 8.00349C15.0629 7.55499 14.9503 6.71531 14.363 6.12801C13.7757 5.54071 12.936 5.42818 12.4875 5.87668C12.039 6.32518 12.1516 7.16487 12.7389 7.75217C13.3262 8.33947 14.1659 8.45199 14.6144 8.00349Z" fill="#FD3B3B"/>
<path d="M20.4798 5.82311C21.483 5.04667 22.004 4.03968 21.6435 3.57393C21.283 3.10818 20.1775 3.36005 19.1744 4.13649C18.1712 4.91293 17.6503 5.91992 18.0108 6.38567C18.3712 6.85142 19.4767 6.59955 20.4798 5.82311Z" fill="#00EEFF"/>
<path d="M7.09792 23.8727C7.4772 23.6537 7.38678 22.7871 6.89598 21.937C6.40518 21.0869 5.69985 20.5753 5.32058 20.7943C4.94131 21.0132 5.03172 21.8799 5.52252 22.73C6.01332 23.5801 6.71865 24.0917 7.09792 23.8727Z" fill="#0048FF"/>
<path d="M26.3867 31.7188C26.9153 31.7188 27.3438 31.0454 27.3438 30.2148C27.3438 29.3843 26.9153 28.7109 26.3867 28.7109C25.8582 28.7109 25.4297 29.3843 25.4297 30.2148C25.4297 31.0454 25.8582 31.7188 26.3867 31.7188Z" fill="#F63BBE"/>
<path d="M31.8645 16.0593C32.6672 15.4943 33.1769 14.836 33.0031 14.589C32.8292 14.3421 32.0376 14.5999 31.2349 15.1649C30.4322 15.7299 29.9225 16.3882 30.0963 16.6352C30.2702 16.8822 31.0618 16.6243 31.8645 16.0593Z" fill="#00CC00"/>
<path d="M6.14694 33.0959C6.4626 32.8888 6.31556 32.1067 5.8185 31.3492C5.32145 30.5916 4.66261 30.1453 4.34695 30.3524C4.03128 30.5595 4.17833 31.3416 4.67539 32.0992C5.17244 32.8567 5.83128 33.303 6.14694 33.0959Z" fill="#0048FF"/>
<path d="M4.14988 27.7525C5.05371 27.6885 5.76478 27.3313 5.7381 26.9547C5.71142 26.5781 4.9571 26.3247 4.05327 26.3887C3.14944 26.4528 2.43837 26.81 2.46505 27.1866C2.49173 27.5631 3.24605 27.8165 4.14988 27.7525Z" fill="#7ACDED"/>
<path d="M6.5949 24.1714C7.67981 24.0993 8.54552 23.8332 8.5285 23.577C8.51148 23.3209 7.61818 23.1716 6.53327 23.2437C5.44835 23.3158 4.58264 23.5819 4.59966 23.838C4.61668 24.0942 5.50998 24.2434 6.5949 24.1714Z" fill="#FF82B2"/>
<path d="M32.5117 21.3828C32.2793 20.5789 31.7242 19.9063 30.9805 19.5234C29.7227 18.8399 28.1477 19.3074 27.4668 20.5652C27.4613 20.5734 27.4586 20.5816 27.4531 20.5898C27.1797 21.1052 27.1211 21.7077 27.2901 22.266C27.4592 22.8243 27.8421 23.2932 28.3555 23.5703C28.7793 23.8082 29.277 23.8766 29.75 23.7617C30.2367 23.6523 30.6469 23.3324 30.8711 22.8867C31.1144 22.3727 31.0926 21.7711 30.8164 21.2734C30.7063 21.0584 30.5429 20.8751 30.3419 20.7411C30.1408 20.6071 29.9088 20.5267 29.668 20.5078C29.3863 20.5023 29.1566 20.7266 29.1512 21.0082C29.1484 21.2625 29.3344 21.4813 29.5859 21.5195C29.7254 21.5277 29.8512 21.6125 29.9141 21.7383C30.0098 21.9324 30.0289 22.1594 29.9687 22.3672C29.9232 22.4578 29.8577 22.5368 29.7772 22.5984C29.6967 22.6599 29.6032 22.7024 29.5039 22.7227C29.2824 22.7801 29.0473 22.75 28.8477 22.6406C28.5742 22.4957 28.3691 22.2496 28.2734 21.957C28.1914 21.6563 28.2215 21.3363 28.3555 21.0547C28.45 20.8704 28.5812 20.7074 28.7411 20.5757C28.901 20.444 29.0861 20.3465 29.2852 20.2891C29.6871 20.1742 30.1137 20.2125 30.4883 20.3984C30.9777 20.6664 31.3414 21.1203 31.5 21.6563C31.6668 22.1949 31.6066 22.7773 31.3359 23.2695C30.8164 24.2539 29.8047 24.9102 28.3281 24.9102C27.4805 24.9102 22.4355 24.7734 22.4355 24.7734L22.4957 26.0313L28.2734 25.9492C29.9961 25.9492 31.418 25.2656 32.2383 23.7344C32.6703 23.0289 32.7687 22.1676 32.5117 21.3828Z" fill="url(#paint3_linear_1_155)"/>
<path d="M19.1406 25.4297C19.3074 25.6074 19.4359 25.8152 19.5234 26.0422L22.6543 26.0231C22.6543 25.6129 22.5996 25.2027 22.5996 24.7652C21.7793 24.7379 20.0894 24.7106 19.5644 24.6914C19.489 24.9736 19.3366 25.2292 19.1242 25.4297H19.1406Z" fill="#7F0099"/>
<path d="M28.6563 14.9844L29.6133 15.1211L29.8594 14.1641L29.9961 13.6172L24.5 12.8516C26.9883 14.7383 28.4922 14.9844 28.6563 14.9844ZM33.0586 1.47656L30.8438 2.73438L30.2969 3.03516L32.5938 3.36328C32.7578 2.67969 33.0586 1.47656 33.0586 1.47656ZM28.1641 4.23828L25.8945 5.52344L31.8281 6.3711L32.2109 4.8125L28.1641 4.23828ZM21.6836 7.90235H21.6563L31.0898 9.26954L31.4453 7.82032L23.7617 6.72657L21.6836 7.90235ZM22.4766 11.0469L30.3516 12.168L30.7344 10.6914L21.2461 9.32422C21.3555 9.625 21.6836 10.2266 22.4766 11.0469Z" fill="#FF4545"/>
<path d="M23.7617 6.72656L31.4453 7.82031L31.8281 6.37109L25.8945 5.52344L23.7617 6.72656ZM32.4297 3.96484C32.4297 3.96484 32.5117 3.58203 32.5664 3.39063L30.2695 3.0625L28.1367 4.26563L32.1836 4.83984L32.4297 3.96484ZM20.8633 8.33985L21.1641 9.21485C21.175 9.26406 21.1941 9.31055 21.2187 9.35156L30.707 10.7188L31.0625 9.26953L21.6289 7.92969L20.8633 8.33985ZM24.3906 12.7695C24.418 12.7969 24.4727 12.8242 24.5 12.8516L29.9961 13.6445L30.3516 12.1953L22.4766 11.0742C23.0754 11.6813 23.7152 12.2473 24.3906 12.7695Z" fill="#FF9C9C"/>
<path d="M33.0313 3.08985C33.7561 3.08985 34.3438 2.50222 34.3438 1.77734C34.3438 1.05247 33.7561 0.464844 33.0313 0.464844C32.3064 0.464844 31.7188 1.05247 31.7188 1.77734C31.7188 2.50222 32.3064 3.08985 33.0313 3.08985Z" fill="#C93737"/>
<path d="M19.6438 25.1098C20.046 24.762 20.2978 24.272 20.3465 23.7426C20.4231 23.2094 20.2645 22.6707 19.909 22.266C19.2719 21.4293 17.5 21.6371 17.5 21.6371C17.0243 21.6563 16.4746 21.8832 16.543 22.4301C16.587 22.5842 16.6717 22.7236 16.7881 22.8338C16.9045 22.944 17.0484 23.0208 17.2047 23.0563C17.9047 23.223 18.9028 23.0563 18.9301 23.7672C18.9629 24.5656 17.7379 24.2375 17.6395 25.0824C17.541 25.9273 18.9301 25.8152 18.9301 26.3977C18.9301 26.8434 18.4735 26.9199 17.9922 27.0211C17.5793 27.1059 16.7864 27.2344 16.7235 27.7074C16.6606 28.1805 16.9313 28.7629 18.0469 28.5934C19.8024 28.3199 20.393 27.3656 20.393 26.775C20.4039 26.1352 20.1305 25.5254 19.6438 25.1098ZM13.6336 17.891L13.5926 17.8391L13.4832 17.6996L13.3438 17.5492C13.2891 17.4891 13.2235 17.4234 13.1578 17.3578C13.0895 17.2922 13.0184 17.2293 12.9418 17.1719C12.8735 17.1199 12.8024 17.0734 12.7258 17.0324C12.6739 17.0023 12.6164 16.9805 12.5563 16.9695C12.5382 16.9668 12.5197 16.9668 12.5016 16.9695H12.4797H12.5289H12.3867H12.4059C12.396 16.9668 12.3856 16.9668 12.3758 16.9695C12.3157 16.9805 12.2582 17.0023 12.2063 17.0324C12.1297 17.0734 12.0586 17.1199 11.9903 17.1719C11.9192 17.2266 11.8453 17.2922 11.7742 17.3578C11.6403 17.4891 11.5227 17.6313 11.4407 17.716L11.3094 17.8719L11.2492 17.9402C11.0694 18.1393 10.8225 18.2653 10.5557 18.294C10.289 18.3227 10.0209 18.2523 9.80276 18.0961C9.51565 17.8965 9.368 17.5492 9.42268 17.202C9.42268 17.202 9.44182 17.098 9.49104 16.9285C9.56761 16.666 9.67698 16.4145 9.8137 16.1793C10.027 15.791 10.3168 15.4492 10.6641 15.1758C10.902 14.9953 11.1645 14.8504 11.4461 14.7492C11.5227 14.7191 11.6047 14.6945 11.684 14.6754C11.7742 14.648 11.8645 14.6289 11.9575 14.6152L12.116 14.5934H12.7231C12.8078 14.5934 12.8953 14.6152 12.9801 14.6289C13.4411 14.7123 13.8758 14.9034 14.2489 15.1867C14.6016 15.4547 14.8996 15.791 15.1184 16.1766C15.1977 16.3105 15.2688 16.4527 15.3262 16.5977C15.3782 16.718 15.4164 16.8465 15.4492 16.9422C15.4821 17.0379 15.4793 17.0844 15.4903 17.1309V17.1938C15.5255 17.4475 15.4586 17.7049 15.3043 17.9095C15.1501 18.114 14.9209 18.249 14.6672 18.2848C14.6563 18.2875 14.6453 18.2875 14.6371 18.2875C14.2571 18.3449 13.8715 18.1945 13.6336 17.891ZM23.7891 17.891L23.7481 17.8391L23.6387 17.6996L23.5157 17.5492C23.461 17.4891 23.3953 17.4234 23.3297 17.3578C23.2614 17.2922 23.1903 17.2293 23.1137 17.1719C23.0453 17.1199 22.9743 17.0734 22.8977 17.0324C22.8457 17.0023 22.7883 16.9805 22.7309 16.9695C22.7128 16.9668 22.6943 16.9668 22.6762 16.9695H22.6543H22.6953H22.5532H22.5723H22.5422C22.4848 16.9805 22.4274 17.0023 22.3754 17.0324C22.2989 17.0734 22.2278 17.1199 22.1594 17.1719C22.0828 17.2293 22.0118 17.2922 21.9434 17.3578C21.8067 17.4891 21.6918 17.6313 21.6071 17.716L21.4758 17.8719L21.4157 17.9402C21.2358 18.1393 20.9889 18.2653 20.7221 18.294C20.4554 18.3227 20.1873 18.2523 19.9692 18.0961C19.6821 17.8965 19.5344 17.5492 19.5891 17.202C19.5891 17.202 19.6082 17.098 19.6602 16.9285C19.7285 16.6633 19.8297 16.4063 19.961 16.1656C20.1797 15.7801 20.4778 15.4438 20.8305 15.1758C21.0684 14.9953 21.3336 14.8504 21.6153 14.7492C21.6918 14.7191 21.7711 14.6945 21.8504 14.6754C21.9407 14.648 22.0309 14.6289 22.1239 14.6152L22.2825 14.5934H22.8895C22.977 14.5934 23.0618 14.6152 23.1465 14.6289C23.6086 14.7082 24.0434 14.8969 24.418 15.1758C24.7707 15.4438 25.0661 15.7801 25.2875 16.1656C25.3668 16.2996 25.4352 16.4418 25.4926 16.5867C25.5418 16.6988 25.5828 16.8137 25.6157 16.9313C25.6348 16.9941 25.6485 17.057 25.6567 17.1199V17.1828C25.6748 17.3078 25.668 17.4351 25.6369 17.5575C25.6057 17.6799 25.5507 17.7949 25.475 17.896C25.3993 17.9971 25.3044 18.0822 25.1958 18.1466C25.0871 18.211 24.9669 18.2533 24.8418 18.2711C24.8309 18.2738 24.82 18.2738 24.8063 18.2766C24.4235 18.3367 24.0352 18.1918 23.7891 17.891Z" fill="#422B0D"/>
<defs>
<radialGradient id="paint0_radial_1_155" cx="0" cy="0" r="1" gradientUnits="userSpaceOnUse" gradientTransform="translate(17.3879 20.5324) scale(13.8521 13.8521)">
<stop offset="0.5" stop-color="#FDE030"/>
<stop offset="0.92" stop-color="#F7C02B"/>
<stop offset="1" stop-color="#F4A223"/>
</radialGradient>
<radialGradient id="paint1_radial_1_155" cx="0" cy="0" r="1" gradientUnits="userSpaceOnUse" gradientTransform="translate(9.24228 20.5403) scale(5.20824 4.67679)">
<stop stop-color="#ED7770"/>
<stop offset="0.9" stop-color="#ED7770" stop-opacity="0"/>
</radialGradient>
<radialGradient id="paint2_radial_1_155" cx="0" cy="0" r="1" gradientUnits="userSpaceOnUse" gradientTransform="translate(34.5953 320.63) scale(5.31289)">
<stop stop-color="#ED7770"/>
<stop offset="0.9" stop-color="#ED7770" stop-opacity="0"/>
</radialGradient>
<linearGradient id="paint3_linear_1_155" x1="22.4738" y1="22.6204" x2="32.643" y2="22.6204" gradientUnits="userSpaceOnUse">
<stop stop-color="#004054"/>
<stop offset="0.99" stop-color="#45A4FF"/>
</linearGradient>
</defs>
</svg>
