<svg width="18" height="18" viewBox="0 0 18 18" fill="none" xmlns="http://www.w3.org/2000/svg">
<path d="M16.8221 6.90495C16.3463 6.43523 16.0786 5.79453 16.0786 5.12599V4.54126C16.0786 3.16055 14.9593 2.04126 13.5786 2.04126H12.9544C12.2981 2.04126 11.6682 1.78322 11.2005 1.32282L10.7495 0.878834C9.77121 -0.0842392 8.19936 -0.0783126 7.22837 0.89211L6.8107 1.30954C6.3419 1.77807 5.70623 2.04126 5.04345 2.04126H4.42145C3.04074 2.04126 1.92145 3.16055 1.92145 4.54126V5.12599C1.92145 5.79453 1.65368 6.43523 1.17795 6.90495L0.78817 7.28981C-0.197912 8.26344 -0.203908 9.85339 0.774804 10.8344L1.19132 11.2519C1.65887 11.7206 1.92145 12.3556 1.92145 13.0176V13.6046C1.92145 14.9853 3.04074 16.1046 4.42145 16.1046H5.04345C5.70623 16.1046 6.3419 16.3678 6.8107 16.8363L7.22837 17.2538C8.19936 18.2242 9.77121 18.2301 10.7495 17.267L11.2005 16.8231C11.6682 16.3627 12.2981 16.1046 12.9544 16.1046H13.5786C14.9593 16.1046 16.0786 14.9853 16.0786 13.6046V13.0176C16.0786 12.3556 16.3411 11.7206 16.8087 11.2519L17.2252 10.8344C18.2039 9.85339 18.1979 8.26344 17.2118 7.28981L16.8221 6.90495ZM6.18447 4.7154C7.04943 4.7154 7.74669 5.40805 7.74669 6.27605C7.74669 6.68763 7.5821 7.08236 7.28913 7.37339C6.99615 7.66443 6.59879 7.82793 6.18447 7.82793C5.31068 7.82793 4.61342 7.13528 4.61342 6.27605C4.61342 5.40805 5.31068 4.7154 6.18447 4.7154ZM11.8244 13.4392C10.9594 13.4392 10.2621 12.7378 10.2621 11.8786C10.2621 11.467 10.4267 11.0723 10.7197 10.7812C11.0127 10.4902 11.41 10.3267 11.8244 10.3267C12.6893 10.3267 13.3954 11.0194 13.3954 11.8786C13.3954 12.2925 13.2299 12.6895 12.9353 12.9821C12.6406 13.2748 12.241 13.4392 11.8244 13.4392ZM6.55077 12.8123C6.1869 13.1738 5.59951 13.1738 5.23564 12.8123C4.86834 12.4475 4.86834 11.8533 5.23564 11.4884L11.4404 5.32477C11.8043 4.96331 12.3917 4.96331 12.7555 5.32477C13.1228 5.68964 13.1228 6.28379 12.7555 6.64866L6.55077 12.8123Z" fill="#2136D4"/>
</svg>
