<svg width="12" height="13" viewBox="0 0 12 13" fill="none" xmlns="http://www.w3.org/2000/svg">
<path d="M10 4.60925H11.3333C11.5101 4.60925 11.6797 4.66906 11.8047 4.77551C11.9298 4.88197 12 5.02635 12 5.1769V11.9886C12 12.1392 11.9298 12.2836 11.8047 12.39C11.6797 12.4965 11.5101 12.5563 11.3333 12.5563H0.666667C0.489856 12.5563 0.320286 12.4965 0.195262 12.39C0.0702379 12.2836 0 12.1392 0 11.9886V5.1769C0 5.02635 0.0702379 4.88197 0.195262 4.77551C0.320286 4.66906 0.489856 4.60925 0.666667 4.60925H2V4.04161C2 3.13832 2.42143 2.27202 3.17157 1.6333C3.92172 0.994573 4.93913 0.635742 6 0.635742C7.06087 0.635742 8.07828 0.994573 8.82843 1.6333C9.57857 2.27202 10 3.13832 10 4.04161V4.60925ZM5.33333 8.99828V10.2857H6.66667V8.99828C6.92086 8.87332 7.11952 8.68044 7.23184 8.44954C7.34416 8.21865 7.36387 7.96265 7.2879 7.72125C7.21193 7.47985 7.04454 7.26654 6.81168 7.1144C6.57882 6.96226 6.29351 6.8798 6 6.8798C5.70649 6.8798 5.42118 6.96226 5.18832 7.1144C4.95546 7.26654 4.78807 7.47985 4.7121 7.72125C4.63613 7.96265 4.65584 8.21865 4.76816 8.44954C4.88048 8.68044 5.07914 8.87332 5.33333 8.99828ZM8.66667 4.60925V4.04161C8.66667 3.43941 8.38572 2.86188 7.88562 2.43607C7.38552 2.01025 6.70724 1.77103 6 1.77103C5.29276 1.77103 4.61448 2.01025 4.11438 2.43607C3.61428 2.86188 3.33333 3.43941 3.33333 4.04161V4.60925H8.66667Z" fill="#3A3838"/>
</svg>
